<?xml version="1.0" encoding="UTF-8"?><svg id="Layer_1" xmlns="http://www.w3.org/2000/svg" viewBox="0 0 2000 2000"><defs><style>.cls-1{fill:#000;stroke-width:0px;}</style></defs><path class="cls-1" d="M1076.4,1350.6c-27.31-25.25-56.9-52.62-91.07-84.21-4.13,15.9-6.63,25.55-9.7,37.36-12.75-16.01-24.35-30.58-38.42-48.25-2.14,11.41-4.12,21.94-7.04,37.54-6.8-11.18-11.86-19.49-19.36-31.81-7.46,10.01-13.9,18.65-20.34,27.29-1.58-.82-3.15-1.63-4.73-2.45,1.06-8.37,2.12-16.74,3.93-31.03-14.28,8.06-25.24,14.25-32.64,18.43-32.25-22.16-63.08-43.62-94.2-64.66-28.64-19.37-57.38-38.6-86.45-57.32-32.03-20.63-65.58-21.06-99.63-5.25-39.65,18.42-80.12,12.21-121.24,6.5-16.81-2.33-34.94.98-51.9,4.46-34.38,7.05-38.1,5.74-47.36-26.77-4.8-16.86-6.32-34.59-29.17-40.2-4.93-1.21-8.27-20.39-7.45-30.92,1.3-16.7,8.36-32.44-7.96-47.07-4.11-3.68-1.88-17.62,1.06-25.5,25.55-68.51,65.41-127.15,121.03-175.24,13.64-11.79,23.9-16.55,39.72-4,5.32,4.22,16.35,1.98,24.67,1.35,3.86-.29,7.48-3.8,11.2-5.86,47.76-26.46,47.29-26.12,78.82,18.43,4.14,5.85,16.5,9.59,24.19,8.46,16.68-2.46,32.91-8.36,49.12-13.49,17.19-5.44,27.48-.68,32.22,17.54,16.23,62.49,33.11,124.82,49.68,187.22,4.27,16.1-2.25,25.24-17.72,31.16-30.59,11.71-35.6,36.84-9.94,57.45,33.03,26.54,68.23,50.37,104.25,76.65,6.93-32.65,37.13-25.86,57.59-40.67-4.35-7.47-7.1-16.82-13.3-22.13-110.12-94.32-132.37-210.4-86.41-343.8.81-2.36.94-4.96,2.06-11.17-11.01-3.26-22.27-6.59-34.41-10.18,11.19-8.27,22.7-16.77,38.24-28.25-11.79-3.02-18.56-4.76-29.19-7.48,31.66-17.35,50.57-40.17,47.04-73.18-44.17,0-85.97-.45-127.74.4-7.92.16-15.7,5.56-23.6,8.4-11.91,4.27-24.11,12.22-35.73,11.47-10.37-.67-20.1-11.02-30.12-17.11,6.44-6.33,11.77-15.13,19.5-18.57,32.6-14.53,65.07-30.38,99.19-40.16,33.74-9.67,69.41-12.62,103.76-18.44-20.33-33.9-33.06-37.36-90.43-23.64,30.41-31.97,47.73-33.24,104.82-9.69-6.15-13.56-9.82-29.13-18.88-40.33-37.97-46.96-77.34-92.79-116.61-138.67-25.14-29.37-59.54-37.44-96.1-38.54-.47-30.39,22.77-48.86,53.4-44.53,30.17,4.27,60.4,8.45,90.74,11.19,44.28,3.99,84.04,17.95,120.6,44.02,11.47,8.18,30.29,12.48,43.98,9.73,26.33-5.28,45,4.65,64.24,19.15,20.09,15.14,41.35,28.71,61.61,43.63,12.29,9.06,28.88,17.09,34.38,29.6,13.86,31.5,22.88,65.18,33.11,98.21,4.42,14.26,7.05,29.07,10.16,42.24-3.19,7.01-6.99,14.07-9.64,21.54-3.15,8.9-7.37,18.18-7.29,27.25.07,8.08,3.84,17.26,8.74,23.91,7.6,10.33,16.56,17.44,2.81,31.11-3.05,3.03,5.73,22.71,13.37,30.51,9.38,9.58,23.28,14.74,32.91,27.24-5.02-.6-10.04-1.19-16.12-1.91,1.38,2.98,1.87,5.63,3.44,7.18,44.42,43.79,86.18,89.49,111.53,147.74,7.44,17.1,22.46,28.57,29.42,48.05,6.74,18.86,31.62,31.24,49.42,47.27-2.02,1.26-5.7,3.57-10.3,6.45,39.88,65.48,79.73,130.91,118.97,195.34.18,0-4.42.21-15.39.73,87.39,67.03,170.74,130.96,257.84,197.77h-57.53c29.45,19.86,54.3,36.62,79.75,53.78-26.58,14.23-39.6,13.79-110.79-2.8,25.59,52.95,80.13,92.55,80.08,157.33-2.61,1.31-5.22,2.62-7.84,3.92-5.77-10.38-11.53-20.77-21.09-37.98,1.4,19.58,2.24,31.36,3.08,43.15-1.73.52-3.45,1.03-5.18,1.55-4.09-6.96-7.5-14.46-12.4-20.8-19.68-25.44-38.2-52.05-60.2-75.34-26.84-28.41-57.61-52.71-62.49-95.92-1.92-17.02-32.49-31.23-49.3-27.6-7.98,1.72-16.49,1.04-26.52,1.53,8.24,34.18,13.27,67.8,40.56,95.12,31.75,31.78,59.22,67.87,88.11,102.45,5.87,7.02,9.82,15.64,11.91,26.58-9.85-7.51-19.7-15.02-29.56-22.54-.83.79-1.67,1.58-2.5,2.37,21.73,30.74,43.45,61.49,65.18,92.23-40.28-6.35-70.51-28.85-102.3-53.82,4.88,12.36,9.76,24.73,15.96,40.44-19.4-7.97-36.5-15-54.28-22.3-1.25,1.83-3.7,5.41-6.46,9.45-21.27-28.2-41.47-54.98-61.68-81.77-1.36.2-2.72.39-4.08.59,3.97,20.53,7.94,41.06,12.8,66.2-34.62-33.01-46.82-71.95-55.6-112.6-.36-1.65-.59-3.4-.47-5.08,3.93-55.16-14.3-96.94-71.24-113.01,3.48,6.37,8.03,14.7,13.09,23.95-11.44,5.53-22.72,10.99-35.4,17.13.69,1.99,2.39,6.89,4.56,13.15-9.25-.76-16.53-1.36-26.89-2.22-4.64,47.61-34.78,80.49-62.3,115.06-7.89,9.92-14.32,21.15-20.44,32.31-24.24,44.21-20.68,52.52,22.85,77.14,12.25,6.93,22.67,20.57,29,33.53,7.23,14.82,15.84,17.12,30.2,14.5,14.98-2.74,30.32-3.81,45.56-4.66,7.46-.42,15.04,1.31,22.58,2.07,1.4,11.7,5.76,23.04,3,32.24-2.74,9.14-11.56,21.48-19.59,23.09-25.59,5.14-52.06,5.97-78.19,8.41-2.53.24-6.37-.96-7.45.33-25.38,29.95-44.62,1.48-65.3-7.27-17.14-7.25-33.25-16.97-49.77-25.69-24.85-13.12-29.32-11.28-37.06,15.49-.9,3.11-1.86,6.2-9.73,12.07-8.68-17.12-17.36-34.24-28.42-56.06-13.05,12.11-25.23,23.41-38.8,36-25.01-12.58-6.16-40.76-19.16-64.66-18.43,16.89-35.68,32.71-57.25,52.49-1.09-12.97-2.56-25-2.99-37.06-.39-11.08.33-22.21.56-33.32-12.7,2.81-25.51,5.17-38.07,8.51-48.39,12.87-93.47,41.19-146.69,31.34-15.95-2.95-31.09-6.83-23.83-31.09,33.9,1.09,68.74,2.52,99.66-26.69-11.66-3.44-20.28-5.69-28.71-8.54-11.21-3.79-23.13-6.57-33.15-12.48-12.2-7.2-31.39-13.1-19.71-33.94,10.96-19.56,22.88-1.98,34.7.28,30.65,5.85,61.34,12.02,92.3,15.51,35.16,3.97,70.61,5.63,105.97,7.45,41.37,2.13,82.92,5.74,124.12,3.54,12.84-.68,28.66-15.73,36.46-28.33,32.31-52.13,61.2-106.35,71.75-167.77,1.54-8.95-2.67-21.15-8.39-28.67-16.44-21.59-34.79-41.76-52.98-61.95-3.14-3.48-9.22-4.32-17.25-7.81ZM1258.03,1237.81c22.78,17.89,45.56,35.77,68.34,53.66.74-.84,1.49-1.69,2.23-2.53-25.21-30.92-50.43-61.84-75.64-92.76-1.01,2.54-2.02,5.08-3.03,7.62-5.92,1.57-11.85,3.14-18.24,4.84,1.16,3.18,2.32,6.32,3.47,9.45-3.33,1.54-9.22,4.91-9.63,4.34-17.64-24.48-42.01-18.52-68.28-14.79,1.39,27.87,22.89,42.07,40.13,59-8.77-16.04-17.53-32.09-26.3-48.13,1.56-.88,3.13-1.75,4.69-2.63,10.02,11.58,20.05,23.16,30.07,34.73,1.22-.99,2.45-1.98,3.67-2.96-3.75-9.54-7.49-19.08-10.4-26.48,27.53,19.9,55.6,40.18,83.66,60.46l1.62-2.71c-8.79-13.71-17.58-27.42-26.36-41.13ZM900.08,604.88c-.65-.48-1.55-.83-1.89-1.48-.33-.62-.46-1.94-.07-2.28,13.69-12.15,27.46-24.22,41.23-36.32-12.81-10.86-20.36-17.27-25.94-22,22.16-5.13,42.48-9.84,63.93-14.81-1.79,6.33-3.8,13.46-5.62,19.95,8.88-7,17.62-13.88,29.07-22.9-2.14-10.11-5.25-24.82-8.37-39.53,3.3-.88,6.6-1.77,9.9-2.65,4.61,10.03,9.21,20.06,13.73,29.88q21.55-18.32-14.08-72.81c-4.44,30.58-19.46,44.01-57.45,51.35,44.21-40.69,17.09-66.69-23.05-87.79,16.29,6.14,32.57,12.28,49.92,18.83-20.28-35.17-49.15-40.16-84.76-24.72,1.28-7.64,2.19-13.07,4.16-24.81-9.95,8.46-15.33,13.04-20.54,17.48-19.12-14.8-37.49-29.03-58.01-44.91h29.22c-35.84-30.52-75.36-37.44-116.43-40.95-26.95-2.31-53.68-7.41-80.64-9.49-10.53-.81-21.43,3.2-32.16,5.01-.44,3.53-.87,7.06-1.31,10.59,55.2,5.02,85.57,41.87,115.19,81.27,21.64,28.78,46.97,54.79,74.39,86.32,1.59-19.02,2.63-31.38,3.66-43.74,5.05,59.28,33.75,87.45,98.11,81.45-44.11,5.79-34.13,51.73-61.1,71.49q12.02-56.84-7.96-64.33c-2.74,67.29-6.28,71.16-74.5,73.41-58.65,1.94-108.44,27.6-157.27,56.67,35.66,8.9,60.35-20.03,91.49-26.09,31.59-6.14,63.48-10.7,95.25-15.96.48,2.57.96,5.15,1.45,7.72-21.26,4.78-42.52,9.57-63.78,14.35.93,3.77,1.86,7.54,2.79,11.31,24.45-6.67,48.95-13.16,73.32-20.13,6.45-1.85,14.75-9.2,18.35-7.18,31.8,17.88,37.51-11.15,50.44-26.9,3.15-3.85,5.08-8.7,6.99-12.07v69.12c2.63.53,5.26,1.06,7.88,1.58,4.7-14.77,9.4-29.55,14.17-44.24,4.07,8.35,8.15,16.7,14.43,29.57,14.18-21.48,27.64-41.87,42.32-64.11-21.59,13.32-39.03,24.08-56.47,34.84ZM1003.86,1106.14l-.38-.58c-4.6,21.87-12.05,26.02-27.27,13.16-11.98-10.12-21.89-22.68-32.72-34.16-1.94,1.59-3.89,3.19-5.83,4.78,20.66,25.76,41.32,51.53,61.97,77.29,2.19-1.56,4.37-3.12,6.56-4.68-1.02-6.75-2.05-13.51-2.63-17.34,39.39,29.23,79.11,58.71,118.81,88.17,1.35-2.78,3.24-6.66,5.46-11.22,6.73,6.21,12.18,11.24,17.63,16.27-3.55-10.78-10.34-17.75-17.84-23.83-11.53-9.34-27.09-15.76-34.75-27.46-36.56-55.86-71.16-113.02-106.03-169.97-2.83-4.63-2.44-11.23-3.55-16.92l-.37.27c15.26,22.8,29.33,46.54,46.34,67.94,6.9,8.68,20.21,12.26,30.6,18.17-10.12,28.56,18.77,82.34,49.88,93.8-13.53-22.73-27.35-45.94-41.17-69.15,1.66-1,3.31-1.99,4.97-2.99,9.87,12.18,19.74,24.36,32.34,39.91-2.67-12.14-4.32-19.63-5.97-27.12,2.12-1.53,4.23-3.06,6.35-4.6,14.35,16.08,28.7,32.16,45.49,50.97v-18.69c5.45.99,10.01,1.83,18.5,3.38-5.46-6.1-7.95-10.9-9.84-10.68-22.81,2.68-35.5-11.5-47.83-27.09-2.35-2.97-7.51-6.53-10.37-5.81-20.88,5.23-30.6-10.46-42.83-21.6-14.58-22.12-29.16-44.24-43.74-66.36,1.61-.83,3.22-1.66,4.83-2.49,21.9,25.44,43.79,50.87,65.69,76.31,1.67-1.51,3.34-3.02,5.01-4.53-1.58-4.98-3.16-9.96-4.74-14.94,2.65-2.18,5.29-4.37,7.94-6.55,9.22,13.09,18.44,26.18,27.66,39.28,1.27-1.36,2.54-2.72,3.82-4.07-3.76-8.87-7.53-17.74-11.29-26.61,1.89-1.5,3.79-3,5.68-4.5,10.06,11.05,20.13,22.1,32.11,35.26-17.3-31.93-32.91-60.75-48.52-89.56,26.89,27.63,50.2,56.58,74.72,84.46,5.32,6.05,15.01,8.26,22.69,12.24,2.92-7.79,5.84-15.59,9.25-24.69,4.62,3.67,10.04,7.97,15.45,12.27,2.24-1.39,4.48-2.78,6.72-4.16-21.91-47.31-43.83-94.61-65.74-141.92,1.21-.71,2.42-1.43,3.62-2.14,6.6,6.08,13.2,12.16,20.5,18.88,3.03-34.29-12.51-57.58-38.15-74.23-.61,4.16-1.47,10.01-2.73,18.6-8.92-12.92-15.89-23.01-22.86-33.09-1,.54-2,1.07-3.01,1.61,2.33,10.82,4.66,21.64,8.41,39.09-17.3-23.66-30.31-41.46-43.32-59.25-.98.76-1.96,1.53-2.94,2.29,4.8,11.33,9.6,22.66,14.41,33.99-26.48-23.33-49.78-47.79-69.25-74.98-10.96-15.3-22.89-17.65-46.16-17.13,23.88,24.07,59.55,29.87,62.1,57-20.66-9-42.79-22.77-66.79-28.01-27.34-5.98-35.05-10.62-35.01-41.68,9.76,8.75,19.26,17.25,28.76,25.76,1.59-1.42,3.19-2.83,4.78-4.25-10.47-15.63-20.93-31.27-31.64-47.27-38.46,23.48-4.17,49-4,63.1-24.98,30.32-51.15,51.85-63.86,79.57-28.46,62.04,9.6,176.64,70.8,220.64-20.52-46.25-69.02-75.23-60.06-130.02,4.89,15.57,9.79,31.14,14.68,46.71-.42-19.12-4.15-37.23-9.95-54.65-5.81-17.46-14.34-34.22-1.87-53.92,3.89,14.39,7.26,26.87,12.05,44.57,4.45-10.96,6.51-16.02,8.17-20.12,14.27,24.99,28.04,49.08,42.48,74.36-16.64,9.38-8.87,29.71.1,29.22,18.06-.97,17.69,13.35,26.16,19.49,7.27,5.27,14.33,10.82,21.49,16.24ZM597.45,943.04c17.35,25.23,31.46,45.33,45.01,65.8,2.69,4.06,3.91,9.42,4.69,14.35,5.12,32.7,7.81,34.59,40.54,26.59,9.88-2.41,19.6-5.52,29.54-7.64,14.92-3.19,18.69-11.29,14.73-25.89-15.52-57.26-30.65-114.63-45.18-172.15-3.8-15.06-11.77-19.5-25.86-15.41-33.39,9.68-66.7,19.67-100.2,28.96-12.21,3.39-16.06,8.65-12.53,21.93,15.04,56.5,28.81,113.33,43.45,169.94,1.25,4.83,5.52,8.88,8.38,13.3,1.32-.38,2.65-.75,3.97-1.13-2.1-38.02-4.2-76.04-6.55-118.65ZM556.15,790.13c-38.37,21.47-74.05,40.92-108.95,61.69-4.07,2.43-7.26,14.07-4.99,18.25,30.02,55.21,60.81,110,92.38,164.33,2.65,4.56,14.12,8.76,18.23,6.68,7.95-4.03,20.28-14.42,19.05-19.08-7.29-27.61-32.95-133.01-34.37-137.54-8.55-27.2,4.81-37.39,29.06-40.91,4.64-.67,8.91-3.92,16.1-7.26-9-15.67-17.17-29.9-26.51-46.16ZM1171.37,1530.81c6.15-18.58,12.06-36.42,17.97-54.27-2.27-.81-4.53-1.61-6.8-2.42,4.38-2.64,8.76-5.27,14.84-8.94-19.45-10.67-25.8-2.17-32.84,12.49-25.65,53.46-53.41,105.9-79.12,159.32-9.98,20.74-26.31,24.19-45.94,22.95-20.32-1.29-40.67-4.71-60.91-4.05-30.93,1.01-58.72,10.95-75.12,39.84-2.47,4.35.28,11.65.61,17.59,5.18-1.64,12.97-1.65,15.15-5.16,21.8-35.03,54.94-39.55,95.21-35.31-17.04,13.54-32.84,24.67-46.64,37.88-4.46,4.27-3.7,14.01-5.33,21.25,7.74-1.23,17.04-.19,22.88-4.2,10.19-6.98,17.45-18.15,27.41-25.6,15.09-11.31,31.44-20.94,47.26-31.28,1.36,2.17,2.73,4.35,4.09,6.52-11,10.35-22.83,19.99-32.69,31.34-5.79,6.66-10.16,15.72-11.82,24.34-.87,4.53,5.46,10.45,8.53,15.75,4.52-2.85,9.69-5.04,13.45-8.68,12.14-11.74,21.99-27.27,36.17-35.03,10.75-5.88,28.53-6.4,40.03-1.66,16.83,6.94,30.57,21.13,46.24,31.28,3.71,2.41,9.87,1.04,14.9,1.41,1.66-2.96,3.31-5.93,4.97-8.89-14.58-11.63-29.44-22.95-43.68-34.98-13.87-11.72-37.77-17.62-26.79-44.66,3.79-9.32,6.46-19.12,9.17-28.84,1.28-4.6,21.91-40.58,21.39-43.29-3.06-15.85,25.23-22.89,11.15-41.2-.44-.57,1.1-2.66,1.83-4.27,4.81.26,9.7.52,14.41.77ZM467.66,823.03c-7.77-15.3-17.03-12.99-27.34-2.25-24.75,25.77-49.21,51.83-74.53,77.03-11.53,11.47-8.84,19.57,1.82,29.43,41.84,38.71,82.97,78.19,125.14,116.53,5.6,5.09,15.67,5.25,23.67,7.69-.21-8.29,2.39-18.06-1.08-24.62-21.48-40.49-44.79-79.99-66.59-120.31-26.29-48.63-25.9-48.83,17.48-80.74.61-.45.8-1.48,1.45-2.76ZM619.1,992.48c-4.24,1.41-8.47,2.81-12.71,4.22,2.73,8.9,2.81,20.54,8.67,26.18,18.38,17.68,17.34,36.19.73,50.75-19.21,16.84-41.95,29.89-64.06,43.08-14.75,8.8-31.07,14.96-46.68,22.3,1,2.76,2.01,5.53,3.01,8.29,34.74-9.62,74.06-12.13,103.01-30.76,32.19-20.71,50.27,12.19,76.05,7.6,5.62-1,14.38,8.36,19.71,14.63,8.28,9.72,12.72,23.91,22.56,30.9,33.44,23.77,68.26,45.66,103.23,67.16,6.42,3.95,16,2.75,24.13,3.93.52-2.81,1.05-5.62,1.57-8.44-8.02-4.81-16.04-9.63-23.09-13.86,14.82-6.86,28.58-13.23,43.98-20.35-7.2-4.47-12.47-7.74-19.21-11.92q39.11-9.47,36.77-36.96c-16.19,12.64-31.15,24.31-48.54,37.89.41,2,1.81,8.9,3.62,17.79-7.72,0-14.28,1.82-19.15-.28-60.29-25.94-112.35-62.56-151.17-116.67-7.12-9.93-18.66-16.59-26.8-25.94-6.68-7.67-12.19-16.67-16.7-25.84-6.99-14.23-12.69-29.09-18.94-43.68ZM354.05,930.55c-10.78,20.29-19.07,37.7-29.03,54.11-9.61,15.84-4.67,23.96,10.91,31.21,48.44,22.53,96.37,46.14,144.6,69.11,31.02,14.77,32.64,13.87,40.31-15.1-9.89-3.63-20.46-5.32-28.27-10.87-11.66-8.29-21.36-19.31-31.92-29.14-34.56-32.2-69.13-64.4-106.61-99.32ZM1281.82,1774.33c-4.26-31.04-22.58-29.76-40.89-25.96-46.83,9.72-90.46,4.83-131.53-21.95-24.54-16-29.67-12.93-42.66,17.42,31.53,18.56,63.22,37.22,93.96,55.31,14.64-28.95,38.28-8.73,56.24-13.46,20.85-5.49,42.58-7.61,64.88-11.36ZM703.97,1626.84c32.63,35.93,78.61,33.31,122.01,43.85-44.34,16.15-88.67,32.3-133.01,48.44,26.03-.64,52.9-2.3,78.2-9.51,28.96-8.25,56.39-21.75,84.76-32.24,6.81-2.52,14.9-1.36,22.05-3.23,11.62-3.04,22.95-7.2,34.4-10.88-.55-3.2-1.1-6.39-1.65-9.59-67.21-17.74-141.12,8.36-206.77-26.84ZM339.94,1031.33c-13.7,44.09-12.91,48.63,10.8,53.1,50.85,9.59,101.81,18.6,152.78,27.49,32.04,5.59,57.97-11.85,47.01-62.47-11.32,18.41-19.82,30.69-26.66,43.83-6.45,12.41-13.27,18.57-27.88,11.27-27.31-13.64-55.92-24.82-82.56-39.6-23.28-12.93-51.09-14.69-73.49-33.61ZM1257.52,1025.65c-14.55-2.87-28.66-5.65-45.97-9.07,8.95,13.16,14.99,32.04,24.33,33.84,24.35,4.71,21.58,14.58,14.51,31.55-1.37,3.3,7.6,10.91,11.8,16.53,4.51-5.02,9.02-10.04,16.51-18.37,13.67,13.2,29.11,28.1,43.37,41.87-10.44-18.13-21.97-38.17-33.51-58.22,1.48-.99,2.95-1.98,4.43-2.97,4.96,3.66,9.93,7.31,14.89,10.97,1.18-1.1,2.36-2.2,3.53-3.31-15.12-19.55-30.24-39.1-47.94-62-3.21,10.37-4.64,14.97-5.94,19.17ZM1415.02,1216.68c-2.33,2.75-4.65,5.5-6.98,8.24-10.02-5.71-22.68-9.21-29.59-17.51-28.1-33.7-68.01-45.85-112.96-64.93,15.25,13.77,24.3,23.99,35.28,31.29,11.68,7.77,28.91,9.66,37.24,19.56,28.81,34.26,65.75,47.5,96.84,49.2-18.78-18.87-43.6-43.8-68.42-68.74-.37.39-.74.77-1.12,1.16,16.57,13.91,33.14,27.82,49.7,41.72ZM1019,674.92c-5.77,7.86-12.23,16.65-18.69,25.43-1.5-1.02-3-2.04-4.5-3.06-.63,7.37-1.27,14.74-1.93,22.49-5.27-.99-9.38-1.77-12.17-2.3v47.21c4.61-7.34,6.62-10.55,7.07-11.27,20.36,17.64,40.64,35.22,60.93,52.79.97-1.03,1.95-2.07,2.92-3.1-13.82-22.19-27.63-44.39-44.56-71.58,11.66,3.65,16.39,5.13,19.1,5.98-2.72-20.79-5.32-40.73-8.18-62.6ZM367.86,1099.2c-2.19,2.13-4.38,4.27-6.57,6.4,3.23,10.43,5.21,21.52,10.18,31.04,2.81,5.37,11.39,12.36,15.93,11.45,30.88-6.19,61.38-14.29,92.01-21.78-.18-2.16-.36-4.32-.54-6.48-23.79-4.12-47.49-9.04-71.44-11.83-6.37-.74-32.38-1.95-39.57-8.81ZM905.29,722.78c-9.35,7.63-17.64,10.94-19.15,16.21-7.59,26.4-8.27,52.03,19.15,73.3v-89.5ZM1193.73,1322.16c-1.97,1.92-3.94,3.85-5.91,5.77v26c-12-2.34-22.19-4.33-35.91-7,5.63,10.31,9.47,17.35,14.71,26.95,1.35-7.1,2.08-10.95,3.19-16.82,6.68,7.89,11.49,13.57,18.67,22.05v-18.13c1.54-1.01,3.09-2.02,4.63-3.03,5.61,8.27,11.23,16.54,17.62,25.95,1.37-15.06,5.39-26.98,2.51-36.88-2.74-9.39-12.71-16.66-19.5-24.86ZM1501.39,1331.53c-24.45-16.88-54.31-37.5-86.95-60.04,17.94,46.38,53.78,57.47,86.95,60.04ZM561.12,1099.81c16.77-9.17,25.89-14.16,34.9-19.09-7.48-12.19-13.32-21.71-22.59-36.8-4.39,19.9-7.5,34.02-12.32,55.89ZM1540.63,1323.05c1.24-2.13,2.48-4.26,3.72-6.39-24.23-15.84-48.45-31.67-72.68-47.51-1.7,2.65-3.41,5.3-5.11,7.95,24.69,15.31,49.38,30.63,74.07,45.94ZM1029.97,1237.25c-2.01,1.9-4.02,3.81-6.03,5.71,6.4,14.61,9.21,33.64,39.64,25.32-13.16-12.16-23.38-21.6-33.6-31.04ZM1500.49,1354.94c-2.81,3.41-5.63,6.81-8.44,10.22,15.76,11.07,31.51,22.14,47.27,33.21,1.56-2.14,3.12-4.29,4.68-6.43-14.5-12.33-29-24.67-43.51-37ZM1550.84,1368.18c-1.41,2.3-2.82,4.59-4.23,6.89,21.84,13.28,43.67,26.56,65.51,39.83,1.04-1.73,2.08-3.45,3.12-5.18-21.47-13.85-42.93-27.7-64.4-41.54ZM860.04,837.08c3.16-.13,6.32-.27,9.48-.4,9.97-14.03,1.53-27.57-4.53-41.17-2.81.12-5.63.24-8.44.36,1.16,13.74,2.33,27.47,3.49,41.21Z"/><path class="cls-1" d="M983.28,999.64c-18.55-23.28-38.63-45.55-55.02-70.26-8.22-12.4-9.72-29.26-15.82-49.23,25.92,36.47,48.14,67.73,70.36,98.99,1.79-1.08,3.59-2.16,5.38-3.24-1.76,8-3.51,16.01-5.27,24.01,0,0,.37-.27.37-.27Z"/><path class="cls-1" d="M1003.86,1106.14c-4.31-13.28-8.63-26.56-12.94-39.84,1.47-.6,2.93-1.21,4.4-1.81,18.36,32.17,36.72,64.33,55.07,96.5-26.78-9.54-34.84-34.1-46.91-55.41,0-.02.39.56.39.56Z"/><path class="cls-1" d="M1188.76,1079.81c-18.86-30.3-37.73-60.61-56.59-90.91,2.21-1.45,4.43-2.9,6.64-4.35,19.34,29.82,38.69,59.64,58.03,89.45-2.69,1.94-5.39,3.87-8.08,5.81Z"/><path class="cls-1" d="M1078.48,958.97c-17.21-19.59-34.42-39.18-43.9-49.97,10.44,9.29,29.95,26.65,49.46,44.02-1.85,1.98-3.71,3.97-5.56,5.95Z"/><path class="cls-1" d="M1138.5,1028.57c19.13,21.56,38.25,43.13,57.38,64.69-2.55,2.23-5.11,4.45-7.66,6.68-22.31-18.55-38.16-43.05-53.81-67.73,1.36-1.21,2.73-2.42,4.09-3.64Z"/><path class="cls-1" d="M1103.98,962.59c-14.39-18.11-28.78-36.23-43.18-54.34-.59.37-1.17.74-1.76,1.11,17.08,15.35,34.16,30.7,51.24,46.05-2.1,2.39-4.21,4.79-6.31,7.18Z"/><path class="cls-1" d="M1134.41,1032.21c-11.35-15.35-22.7-30.71-34.05-46.06,1.64-1.32,3.28-2.64,4.92-3.95,8.38,17.73,41.43,14.66,33.22,46.38-1.36,1.21-2.73,2.42-4.09,3.64Z"/><path class="cls-1" d="M895.76,453.53c7.93-2.06,11.58-3.01,17.39-4.52-3.28-6.27-6.34-12.11-11.93-22.79,11.23,3.3,21.43,3.23,24.02,7.63,7.83,13.32,12.71,28.37,18.73,42.75-11.67-3.59-23.49-6.79-34.93-11-3.54-1.3-6.07-5.35-13.28-12.07Z"/><path class="cls-1" d="M893.41,495.93c-26.21-.91-39.58-17.41-41.93-52.02,13.56,16.82,28.07,34.82,41.93,52.02Z"/></svg>