<?xml version="1.0" encoding="UTF-8"?>
<svg id="Layer_1" xmlns="http://www.w3.org/2000/svg" version="1.1" viewBox="0 0 64 64">
  <!-- Generator: Adobe Illustrator 29.3.0, SVG Export Plug-In . SVG Version: 2.1.0 Build 146)  -->
  <defs>
    <style>
      .st0 {
        fill: #fff;
      }

      .st1 {
        fill: #1a365d;
      }
    </style>
  </defs>
  <rect class="st1" width="64" height="64" rx="8" ry="8"/>
  <path class="st0" d="M23.1,56.4l-4.5-1.8,3.5-8.6c-4.3-1.1-7.8-3.5-10.5-7s-4-7.5-4-11.9v-9.8c0-2.7,1-5,2.9-6.9,1.9-1.9,4.2-2.9,6.9-2.9s1.8.2,2.6.5,1.6.6,2.4.9l14.5,5.9-9.8,3.7v3.7l26.9,17.1,2.4,12.2h-4.9l-2.4-4.9h-12.2v9.8h-4.9v-9.8h-4.9l-4,9.8ZM27.1,41.8h21.6l-3.8-2.4h-17.7c-2.7,0-5-1-6.9-2.9-1.9-1.9-2.9-4.2-2.9-6.9h4.9c0,1.3.5,2.5,1.4,3.5s2.1,1.4,3.5,1.4h10.1l-15-9.5v-7.6c0-1.3-.5-2.5-1.4-3.5s-2.1-1.4-3.5-1.4-2.5.5-3.5,1.4-1.4,2.1-1.4,3.5v9.8c0,4.1,1.4,7.5,4.3,10.4,2.9,2.9,6.3,4.3,10.4,4.3ZM17.3,19.8c-.7,0-1.3-.2-1.7-.7s-.7-1-.7-1.7.2-1.3.7-1.7,1-.7,1.7-.7,1.3.2,1.7.7.7,1,.7,1.7-.2,1.3-.7,1.7-1,.7-1.7.7Z"/>
</svg>